<?xml version="1.0" encoding="utf-8"?>
<!-- Generator: Adobe Illustrator 16.0.3, SVG Export Plug-In . SVG Version: 6.00 Build 0)  -->
<!DOCTYPE svg PUBLIC "-//W3C//DTD SVG 1.1//EN" "http://www.w3.org/Graphics/SVG/1.1/DTD/svg11.dtd">
<svg version="1.1"
	 id="svg2" xmlns:dc="http://purl.org/dc/elements/1.1/" xmlns:cc="http://creativecommons.org/ns#" xmlns:rdf="http://www.w3.org/1999/02/22-rdf-syntax-ns#" xmlns:svg="http://www.w3.org/2000/svg" xmlns:sodipodi="http://sodipodi.sourceforge.net/DTD/sodipodi-0.dtd" xmlns:inkscape="http://www.inkscape.org/namespaces/inkscape" inkscape:output_extension="org.inkscape.output.svg.inkscape" sodipodi:docname="Warning_icon.svg" inkscape:version="0.47pre4 r22446" sodipodi:version="0.32"
	 xmlns="http://www.w3.org/2000/svg" xmlns:xlink="http://www.w3.org/1999/xlink" x="0px" y="0px" width="400px" height="400px"
	 viewBox="0 0 400 400" enable-background="new 0 0 400 400" xml:space="preserve">
<sodipodi:namedview  height="400px" width="400px" showgrid="false" inkscape:cy="-55.005032" inkscape:cx="-315.22436" inkscape:zoom="0.32438524" objecttolerance="10" guidetolerance="10" gridtolerance="10000" borderopacity="1.0" bordercolor="#666666" pagecolor="#ffffff" id="base" inkscape:window-maximized="1" inkscape:window-y="0" inkscape:window-x="0" inkscape:window-height="1001" inkscape:window-width="1680" inkscape:pageshadow="2" inkscape:document-units="px" inkscape:pageopacity="0.0" inkscape:current-layer="layer1">
	</sodipodi:namedview>
<defs>
	
	
		<inkscape:perspective  inkscape:vp_z="400 : 200 : 1" inkscape:vp_y="0 : 1000 : 0" inkscape:vp_x="0 : 200 : 1" sodipodi:type="inkscape:persp3d" id="perspective3046" inkscape:persp3d-origin="200 : 133.33333 : 1">
		</inkscape:perspective>
	
		<inkscape:perspective  inkscape:vp_z="1 : 0.5 : 1" inkscape:vp_y="0 : 1000 : 0" inkscape:vp_x="0 : 0.5 : 1" sodipodi:type="inkscape:persp3d" id="perspective4338" inkscape:persp3d-origin="0.5 : 0.33333333 : 1">
		</inkscape:perspective>
</defs>
<g id="layer1" inkscape:label="Layer 1" inkscape:groupmode="layer">
	<path id="path3152" fill="#777777" fill-opacity="0.7973" d="M213.055,47.378c-4.215,0.218-8.035,2.546-10.159,6.193L33.94,345.107
		c-2.239,3.865-2.246,8.632-0.019,12.504c2.228,3.871,6.353,6.26,10.819,6.266l336.929,0.528c4.468,0.014,8.604-2.359,10.848-6.224
		c2.244-3.865,2.255-8.633,0.028-12.508L224.534,53.609C222.184,49.539,217.748,47.132,213.055,47.378L213.055,47.378z
		 M213.658,84.84l146.41,254.527l-293.651-0.453L213.658,84.84z"/>
	<path id="path2178" fill="#F40808" stroke="#B20606" stroke-width="6.25" stroke-linecap="round" stroke-linejoin="round" d="
		M199.827,41.495c-4.214,0.217-8.035,2.546-10.159,6.193L20.713,339.225c-2.239,3.865-2.247,8.631-0.019,12.502
		c2.228,3.872,6.352,6.261,10.819,6.267l336.929,0.528c4.469,0.014,8.604-2.359,10.849-6.224c2.243-3.864,2.254-8.633,0.027-12.507
		L211.307,47.726C208.956,43.655,204.521,41.248,199.827,41.495L199.827,41.495z M200.431,78.956l146.41,254.528L53.19,333.031
		L200.431,78.956z"/>
	
		<path id="path2160" sodipodi:r1="160.98232" sodipodi:sides="3" sodipodi:r2="80.491158" sodipodi:arg1="0.52519998" sodipodi:cy="117.14286" sodipodi:cx="91.428574" sodipodi:arg2="1.5723975" sodipodi:type="star" inkscape:flatsided="true" inkscape:rounded="0" inkscape:randomized="0" fill="#EA1313" stroke="#9E0000" stroke-width="20.6878" stroke-linecap="round" stroke-linejoin="round" d="
		M368.474,346.037l-336.948-0.539L200.467,53.962L368.474,346.037z"/>
	<path id="text2171" fill="#FFFFFF" d="M203.688,256.441h-5.334c-0.552-9.455-2.391-20.777-5.517-33.965l-6.345-26.872
		c-3.801-16.111-5.701-27.65-5.701-34.617c0-14.058,6.712-21.087,20.137-21.088c5.886,0,10.744,1.944,14.576,5.832
		c3.83,3.888,5.746,8.849,5.746,14.882c0,6.407-2.022,18.071-6.068,34.99l-6.438,26.872
		C206.477,231.932,204.791,243.254,203.688,256.441L203.688,256.441z M201.204,274.076c6.253,0,11.097,2.131,14.528,6.391
		c3.434,4.262,5.15,8.818,5.15,13.67c0,6.407-2.084,11.337-6.253,14.789c-4.169,3.453-8.644,5.179-13.426,5.179
		c-6.314,0-11.172-2.114-14.575-6.345s-5.104-8.771-5.104-13.623c0-5.66,1.885-10.419,5.655-14.275
		C190.951,276.004,195.625,274.076,201.204,274.076L201.204,274.076z"/>
</g>
</svg>
